<?xml version="1.0" encoding="UTF-8"?>
<svg width="18px" height="18px" viewBox="0 0 18 18" version="1.1" xmlns="http://www.w3.org/2000/svg" xmlns:xlink="http://www.w3.org/1999/xlink">
    <title>abstract</title>
    <g id="页面-1" stroke="none" stroke-width="1" fill="none" fill-rule="evenodd">
        <g id="Apple-TV" transform="translate(-767, -881)">
            <g id="abstract" transform="translate(767, 881)">
                <g id="编组-7" transform="translate(2.2443, 2)">
                    <path d="M7.37806773,1.18867 C7.17036773,1.28163 6.94016773,1.33333 6.69785773,1.33333 C6.45556773,1.33333 6.22535773,1.28163 6.01765773,1.18867 L0.601387731,9.9901 C0.906027731,10.2143 1.13165773,10.5397 1.22869773,10.9167 L12.1670677,10.9167 C12.2640677,10.5397 12.4896677,10.2143 12.7943677,9.9901 L7.37806773,1.18867 Z" id="路径" fill="#107966" fill-rule="nonzero" opacity="0.613257999"></path>
                    <polygon id="路径-9" fill="#40AB97" points="6.75573799 -6.84778401e-14 6.75573799 6.89947165 3.27077801e-14 11"></polygon>
                    <polygon id="路径-9备份" fill="#32675E" points="6.73105307 6.89947165 13.3650881 10.9167 0.0970180729 10.9167"></polygon>
                </g>
                <path d="M0.438,9.3508 C0.82639,9.2311 1.23901,9.1667 1.66667,9.1667 C1.81216,9.1667 1.9559,9.1741 2.09754,9.1887 C2.08812,9.0437 2.08334,8.8974 2.08334,8.75 C2.08334,6.49604 3.20192,4.50329 4.91426,3.29666 C4.70121,2.796 4.58334,2.2451 4.58334,1.66666 C4.58334,1.62102 4.58409,1.57554 4.58555,1.53025 C2.09348,2.97083 0.41667,5.66458 0.41667,8.75 C0.41667,8.952 0.42386,9.1524 0.438,9.3508 Z" id="路径" fill="#32675E" fill-rule="nonzero"></path>
                <path d="M15.4167,8.75 C15.4167,6.49604 14.2981,4.50329 12.5858,3.29666 C12.7988,2.796 12.9167,2.2451 12.9167,1.66666 C12.9167,1.62102 12.9159,1.57554 12.9145,1.53025 C15.4065,2.97083 17.0833,5.66458 17.0833,8.75 C17.0833,8.952 17.0761,9.1524 17.062,9.3508 C16.6736,9.2311 16.261,9.1667 15.8333,9.1667 C15.6878,9.1667 15.5441,9.1741 15.4025,9.1887 C15.4119,9.0437 15.4167,8.8974 15.4167,8.75 Z" id="路径" fill="#32675E" fill-rule="nonzero"></path>
                <path d="M12.7058,16.0865 C12.3387,15.6698 12.0536,15.1793 11.8757,14.64 C10.9434,15.1357 9.8795,15.4167 8.75,15.4167 C7.6205,15.4167 6.55658,15.1357 5.62433,14.64 C5.44638,15.1793 5.16129,15.6698 4.79425,16.0865 C5.97117,16.7224 7.31842,17.0833 8.75,17.0833 C10.1816,17.0833 11.5288,16.7223 12.7058,16.0865 Z" id="路径" fill="#32675E" fill-rule="nonzero"></path>
                <path d="M11,2 C11,3.1045711 10.1045698,4 8.99997,4 C7.89544215,4 7,3.1045711 7,2 C7,0.895428895 7.89544215,0 8.99997,0 C10.1045698,0 11,0.895428895 11,2 Z" id="路径" fill="#0F806C" fill-rule="nonzero"></path>
                <path d="M4,12.99994 C4,14.104551 3.1045711,15 2,15 C0.895428895,15 0,14.104551 0,12.99994 C0,11.895449 0.895428895,11 2,11 C3.1045711,11 4,11.895449 4,12.99994 Z" id="路径" fill="#0F806C" fill-rule="nonzero"></path>
                <path d="M15.99994,15 C17.104551,15 18,14.104551 18,12.99994 C18,11.895449 17.104551,11 15.99994,11 C14.895449,11 14,11.895449 14,12.99994 C14,14.104551 14.895449,15 15.99994,15 Z" id="路径" fill="#0F806C" fill-rule="nonzero"></path>
            </g>
        </g>
    </g>
</svg>