<?xml version="1.0" encoding="UTF-8"?>
<svg width="18px" height="17px" viewBox="0 0 18 17" version="1.1" xmlns="http://www.w3.org/2000/svg" xmlns:xlink="http://www.w3.org/1999/xlink">
    <title>编组 4</title>
    <g id="页面-1" stroke="none" stroke-width="1" fill="none" fill-rule="evenodd">
        <g id="Apple-TV" transform="translate(-816, -881)" fill-rule="nonzero">
            <g id="编组-4" transform="translate(816.3138, 881.25)">
                <path d="M14.6940097,0 C16.2127927,0 17.4440097,1.23121694 17.4440097,2.75 L17.4440097,9.75 C17.4440097,11.2687831 16.2127927,12.5 14.6940097,12.5 L9.475,12.5 L9.475,15.098 L14.725813,15.0986798 C15.1400266,15.0986798 15.475813,15.4344663 15.475813,15.8486798 C15.475813,16.2628934 15.1400266,16.5986798 14.725813,16.5986798 L2.72581302,16.5986798 C2.31159946,16.5986798 1.97581302,16.2628934 1.97581302,15.8486798 C1.97581302,15.4344663 2.31159946,15.0986798 2.72581302,15.0986798 L7.975,15.098 L7.975,12.5 L2.75,12.5 C1.23121694,12.5 0,11.2687831 0,9.75 L0,2.75 C0,1.23121694 1.23121694,0 2.75,0 L14.6940097,0 Z M14.6940097,1.5 L2.75,1.5 C2.05964406,1.5 1.5,2.05964406 1.5,2.75 L1.5,9.75 C1.5,10.4403559 2.05964406,11 2.75,11 L14.6940097,11 C15.3843656,11 15.9440097,10.4403559 15.9440097,9.75 L15.9440097,2.75 C15.9440097,2.05964406 15.3843656,1.5 14.6940097,1.5 Z" id="形状结合" fill="#75480E"></path>
                <path d="M5.88853349,3.790731 C6.18142671,4.08362421 6.18142671,4.55849795 5.88853349,4.85139117 L4.3251204,6.41480426 L5.91575114,8.00615404 C6.18423659,8.27463949 6.20661037,8.69603912 5.9828725,8.99001027 L5.91575114,9.06681421 C5.62285792,9.35970743 5.14798418,9.35970743 4.85509096,9.06681421 L2.73377062,6.94549387 C2.4408774,6.65260065 2.4408774,6.17772691 2.73377062,5.8848337 L4.82787332,3.790731 C5.12076654,3.49783778 5.59564027,3.49783778 5.88853349,3.790731 Z M11.5451268,3.790731 C11.2522336,4.08362421 11.2522336,4.55849795 11.5451268,4.85139117 L13.1085399,6.41480426 L11.5179092,8.00615404 C11.2494237,8.27463949 11.2270499,8.69603912 11.4507878,8.99001027 L11.5179092,9.06681421 C11.8108024,9.35970743 12.2856761,9.35970743 12.5785693,9.06681421 L14.6998897,6.94549387 C14.9927829,6.65260065 14.9927829,6.17772691 14.6998897,5.8848337 L12.605787,3.790731 C12.3128938,3.49783778 11.83802,3.49783778 11.5451268,3.790731 Z M9.45780575,3.159612 C9.59922185,2.81436564 9.97685697,2.65648782 10.3012774,2.80698202 C10.6256978,2.95747622 10.7740522,3.35935335 10.6326361,3.70459971 L8.36416763,9.67433991 C8.22275153,10.0195863 7.84511641,10.1774641 7.52069598,10.0269699 C7.19627554,9.87647569 7.04792122,9.47459856 7.18933732,9.1293522 L9.45780575,3.159612 Z" id="形状结合" fill="#D48F37"></path>
            </g>
        </g>
    </g>
</svg>