<?xml version="1.0" encoding="UTF-8"?>
<svg width="15px" height="18px" viewBox="0 0 15 18" version="1.1" xmlns="http://www.w3.org/2000/svg" xmlns:xlink="http://www.w3.org/1999/xlink">
    <title>编组 6</title>
    <g id="页面-1" stroke="none" stroke-width="1" fill="none" fill-rule="evenodd">
        <g id="Apple-TV" transform="translate(-864, -881)">
            <g id="编组-6" transform="translate(865, 882.5104)">
                <path d="M9.5,0.73959909 C11.8472102,0.73959909 13.75,2.6423889 13.75,4.98959909 C13.75,7.33680928 11.8472102,9.23959909 9.5,9.23959909 L7,9.23959909 C6.58578644,9.23959909 6.25,8.90381265 6.25,8.48959909 C6.25,8.07538553 6.58578644,7.73959909 7,7.73959909 L9.5,7.73959909 C11.0187831,7.73959909 12.25,6.50838215 12.25,4.98959909 C12.25,3.47081603 11.0187831,2.23959909 9.5,2.23959909 L3.5,2.23959909 C3.08578644,2.23959909 2.75,1.90381265 2.75,1.48959909 C2.75,1.07538553 3.08578644,0.73959909 3.5,0.73959909 L9.5,0.73959909 Z" id="路径" fill="#555148" fill-rule="nonzero"></path>
                <path d="M7,5.73959909 C7.41421356,5.73959909 7.75,6.07538553 7.75,6.48959909 C7.75,6.90381265 7.41421356,7.23959909 7,7.23959909 L3.5,7.23959909 C1.98121694,7.23959909 0.75,8.47081603 0.75,9.98959909 C0.75,11.5083822 1.98121694,12.7395991 3.5,12.7395991 L9,12.7395991 C9.41421356,12.7395991 9.75,13.0753855 9.75,13.4895991 C9.75,13.9038127 9.41421356,14.2395991 9,14.2395991 L3.5,14.2395991 C1.15278981,14.2395991 -0.75,12.3368093 -0.75,9.98959909 C-0.75,7.6423889 1.15278981,5.73959909 3.5,5.73959909 L7,5.73959909 Z" id="路径" fill="#555148" fill-rule="nonzero"></path>
                <path d="M3,-0.75 C3.41421356,-0.75 3.75,-0.414213562 3.75,0 L3.75,3 C3.75,3.41421356 3.41421356,3.75 3,3.75 L0,3.75 C-0.414213562,3.75 -0.75,3.41421356 -0.75,3 L-0.75,0 C-0.75,-0.414213562 -0.414213562,-0.75 0,-0.75 L3,-0.75 Z M2.25,0.75 L0.75,0.75 L0.75,2.25 L2.25,2.25 L2.25,0.75 Z" id="矩形" fill="#B8AD90" fill-rule="nonzero"></path>
                <path d="M12,11.25 C12.4142136,11.25 12.75,11.5857864 12.75,12 L12.75,15 C12.75,15.4142136 12.4142136,15.75 12,15.75 L9,15.75 C8.58578644,15.75 8.25,15.4142136 8.25,15 L8.25,12 C8.25,11.5857864 8.58578644,11.25 9,11.25 L12,11.25 Z M11.25,12.75 L9.75,12.75 L9.75,14.25 L11.25,14.25 L11.25,12.75 Z" id="矩形备份-18" fill="#B8AD90" fill-rule="nonzero"></path>
                <path d="M7,9.48959909 C8.1045695,9.48959909 9,8.59416859 9,7.48959909 C9,6.38502959 8.1045695,5.48959909 7,5.48959909 C5.8954305,5.48959909 5,6.38502959 5,7.48959909 C5,8.59416859 5.8954305,9.48959909 7,9.48959909 Z" id="椭圆形" fill="#B8AD90"></path>
            </g>
        </g>
    </g>
</svg>