<?xml version="1.0" encoding="UTF-8"?>
<svg width="20px" height="19px" viewBox="0 0 20 19" version="1.1" xmlns="http://www.w3.org/2000/svg" xmlns:xlink="http://www.w3.org/1999/xlink">
    <title>编组 3</title>
    <g id="页面-1" stroke="none" stroke-width="1" fill="none" fill-rule="evenodd">
        <g id="Apple-TV" transform="translate(-785, -880)">
            <g id="编组-3" transform="translate(785.8762, 880.0421)">
                <path d="M13.933947,15.0434023 L15.7229079,16.0777029 C14.0792553,17.84926 11.7309833,18.957882 9.12377875,18.957882 C6.51657423,18.957882 4.16830224,17.84926 2.52464957,16.0777029 L4.31462094,15.0443582 C5.56874319,16.230518 7.26131849,16.957882 9.12377875,16.957882 C10.9867393,16.957882 12.6797236,16.2301272 13.933947,15.0434023 Z M7.12386337,1.18087919 L7.12373242,3.24777443 C4.23226728,4.10833845 2.12377875,6.78687826 2.12377875,9.95788197 C2.12377875,10.5163505 2.18917837,11.0595442 2.31273675,11.5802221 L0.522343403,12.6146521 C0.263263807,11.7749009 0.12377875,10.8826807 0.12377875,9.95788197 C0.12377875,5.67467704 3.11584347,2.09030627 7.12386337,1.18087919 Z M18.1237787,9.95788197 C18.1237787,10.8826807 17.9842937,11.7749009 17.7252141,12.6146521 L15.9348208,11.5802221 C16.0583791,11.0595442 16.1237787,10.5163505 16.1237787,9.95788197 C16.1237787,6.78724271 14.0157748,4.10895414 11.124822,3.24807122 L11.1246908,1.18110539 C15.13221,2.0909005 18.1237787,5.67503208 18.1237787,9.95788197 Z" id="形状结合" fill="#413264" fill-rule="nonzero"></path>
                <polygon id="路径" fill="#835ED3" fill-rule="nonzero" points="8.12377875 -1.13686838e-13 8.12377875 6 10.1237787 6 10.1237787 -1.13686838e-13"></polygon>
                <polygon id="路径" fill="#835ED3" fill-rule="nonzero" transform="translate(15.1495, 13.4368) rotate(120) translate(-15.1495, -13.4368)" points="14.1494813 10.4368229 14.1494813 16.4368229 16.1494813 16.4368229 16.1494813 10.4368229"></polygon>
                <polygon id="路径" fill="#835ED3" fill-rule="nonzero" transform="translate(3.0981, 13.4368) rotate(240) translate(-3.0981, -13.4368)" points="2.09807621 10.4368229 2.09807621 16.4368229 4.09807621 16.4368229 4.09807621 10.4368229"></polygon>
                <circle id="椭圆形" fill="#7141C2" cx="9.12377875" cy="9.95788197" r="2"></circle>
                <circle id="椭圆形备份-9" stroke="#413264" cx="9.12377875" cy="9.95788197" r="4"></circle>
            </g>
        </g>
    </g>
</svg>