<?xml version="1.0" encoding="UTF-8"?>
<svg width="40px" height="40px" viewBox="0 0 40 40" version="1.1" xmlns="http://www.w3.org/2000/svg" xmlns:xlink="http://www.w3.org/1999/xlink">
    <title>favicon2</title>
    <defs>
        <linearGradient x1="15.0645886%" y1="7.02860275%" x2="60.2184341%" y2="86.3973037%" id="linearGradient-1">
            <stop stop-color="#34BF85" offset="0%"></stop>
            <stop stop-color="#159350" offset="100%"></stop>
        </linearGradient>
    </defs>
    <g id="页面-1" stroke="none" stroke-width="1" fill="none" fill-rule="evenodd">
        <g id="Apple-TV" transform="translate(-767, -821)">
            <g id="favicon2" transform="translate(767, 821)">
                <rect id="矩形" fill="#FFFFFF" fill-rule="nonzero" x="0" y="0" width="40" height="40" rx="8"></rect>
                <path d="M15.025641,5 L24.974359,5 C26.0789285,5 26.974359,5.8954305 26.974359,7 L26.974359,10.7435897 L26.974359,10.7435897 L13.025641,10.7435897 L13.025641,7 C13.025641,5.8954305 13.9210715,5 15.025641,5 Z" id="矩形" fill="#95BFA8"></path>
                <path d="M26.9745045,10.7435897 L28.3290201,13.113992 C29.5018445,15.1664347 29.360241,17.7162344 27.9673643,19.6261905 L21.5195137,28.4676851 C21.4253916,28.5967483 21.2752682,28.6730714 21.1155301,28.6730714 C20.8393878,28.6730714 20.6155301,28.4492138 20.6155301,28.1730714 L20.6157352,19.2928097 C21.9058907,19.0109672 22.8717949,17.8618729 22.8717949,16.4871795 C22.8717949,14.901131 21.5860485,13.6153846 20,13.6153846 C18.4139515,13.6153846 17.1282051,14.901131 17.1282051,16.4871795 C17.1282051,17.8621301 18.0944709,19.0113973 19.3849892,19.2929678 L19.3846154,28.1730714 C19.3846154,28.4492138 19.1607578,28.6730714 18.8846154,28.6730714 C18.7248773,28.6730714 18.5747539,28.5967483 18.4806318,28.4676851 L12.0327812,19.6261905 C10.6399045,17.7162344 10.4983011,15.1664347 11.6711255,13.113992 L13.025641,10.7435897 L26.9745045,10.7435897 Z" id="形状结合" fill="url(#linearGradient-1)"></path>
                <path d="M7.4671287,18.9084644 L7.4671287,19.2847234 C7.4671287,26.2064371 13.0782863,31.8175947 20,31.8175947 C26.9821938,31.8175947 32.6423803,26.1574083 32.6423803,19.1752144 L32.6423803,18.9084644 L34.2834059,18.9084644 L34.2834059,19.1752144 C34.2834059,27.0637217 27.8885073,33.4586204 20,33.4586204 C12.1719729,33.4586204 5.82610306,27.1127506 5.82610306,19.2847234 L5.82610306,18.9084644 L7.4671287,18.9084644 Z" id="路径-5" fill="#2743FF" fill-rule="nonzero"></path>
                <path d="M6.66666667,14.8461538 C8.139426,14.8461538 9.33333333,16.0400612 9.33333333,17.5128205 C9.33333333,18.9855798 8.139426,20.1794872 6.66666667,20.1794872 C5.19390733,20.1794872 4,18.9855798 4,17.5128205 C4,16.0400612 5.19390733,14.8461538 6.66666667,14.8461538 Z M6.66666667,16.4871795 C6.10022077,16.4871795 5.64102564,16.9463746 5.64102564,17.5128205 C5.64102564,18.0792664 6.10022077,18.5384615 6.66666667,18.5384615 C7.23311256,18.5384615 7.69230769,18.0792664 7.69230769,17.5128205 C7.69230769,16.9463746 7.23311256,16.4871795 6.66666667,16.4871795 Z" id="椭圆形" fill="#95BFA8" fill-rule="nonzero"></path>
                <path d="M33.3333333,14.8461538 C34.8060927,14.8461538 36,16.0400612 36,17.5128205 C36,18.9855798 34.8060927,20.1794872 33.3333333,20.1794872 C31.860574,20.1794872 30.6666667,18.9855798 30.6666667,17.5128205 C30.6666667,16.0400612 31.860574,14.8461538 33.3333333,14.8461538 Z M33.3333333,16.4871795 C32.7668874,16.4871795 32.3076923,16.9463746 32.3076923,17.5128205 C32.3076923,18.0792664 32.7668874,18.5384615 33.3333333,18.5384615 C33.8997792,18.5384615 34.3589744,18.0792664 34.3589744,17.5128205 C34.3589744,16.9463746 33.8997792,16.4871795 33.3333333,16.4871795 Z" id="椭圆形备份-7" fill="#95BFA8" fill-rule="nonzero"></path>
                <circle id="椭圆形备份-6" fill="#1C9D5C" cx="20" cy="32.4871795" r="2.46153846"></circle>
            </g>
        </g>
    </g>
</svg>