<?xml version="1.0" encoding="UTF-8"?>
<svg width="57px" height="24px" viewBox="0 0 57 24" version="1.1" xmlns="http://www.w3.org/2000/svg" xmlns:xlink="http://www.w3.org/1999/xlink">
    <title>形状结合</title>
    <g id="页面-1" stroke="none" stroke-width="1" fill="none" fill-rule="evenodd">
        <g id="Apple-TV" transform="translate(-613, -313)" fill="#FFFFFF" fill-rule="nonzero">
            <g id="Kevin" transform="translate(613.388, 313.6084)">
                <path d="M36.9,8.49564836 C37.008,9.28764836 36.612,10.2596484 35.388,11.7356484 C32.112,15.6596484 29.664,18.5396484 27.072,22.6436484 C26.82,23.0396484 26.424,23.3276484 25.884,23.0756484 C24.5806061,22.4716366 23.9509523,21.7553348 23.89588,20.282212 C22.2955565,21.8460844 19.998651,22.9387939 17.748,22.9676484 C14.4,23.0036484 12.564,20.8076484 12.564,17.9276484 C12.564,16.6316484 12.924,15.2276484 13.68,13.7876484 C15.552,9.97164836 18.468,8.06364836 20.556,8.06364836 C21.06,8.06364836 21.456,8.13564836 21.816,8.35164836 C22.824,8.92764836 23.544,9.50364836 24.048,10.2236484 C24.264,10.5476484 24.408,11.0876484 24.408,11.5556484 C24.408,13.7156484 21.996,17.4956484 18.828,17.4956484 C17.964,17.4956484 17.1,17.2436484 16.272,16.7036484 C16.056,17.4236484 15.948,18.1796484 15.948,18.8276484 C15.948,20.4116484 16.596,21.5276484 17.676,21.5276484 C20.387282,21.5276484 22.7803918,18.911566 24.2597671,16.6922459 C24.6665733,14.1586076 25.3789237,10.9941609 26.244,8.42364836 C26.46,7.77564836 26.964,7.59564836 27.54,8.06364836 C28.368,8.78364836 28.764,9.64764836 28.764,10.7276484 C28.764,11.3036484 28.692,11.9516484 28.512,12.6716484 C27.7786667,15.5756484 27.4038519,17.0694755 27.1149044,18.5553356 L27.0380247,18.9614261 C27.0004444,19.1654261 26.964,19.3716484 26.928,19.5836484 C29.52,15.5876484 33.444,10.4396484 35.568,8.24364836 C36.36,7.48764836 36.792,7.63164836 36.9,8.49564836 Z M20.556,0.575648363 C20.808,1.29564836 20.7,2.66364836 19.368,4.46364836 C17.82,6.62364836 12.96,10.8356484 8.316,14.1836484 C9.36,15.8756484 10.332,17.5676484 10.764,18.5036484 C11.124,19.3676484 11.304,20.2316484 11.304,20.8076484 C11.304,21.5276484 11.016,22.2116484 10.692,22.6436484 C10.332,23.1476484 9.756,23.2196484 9.396,22.5356484 C8.064,19.9796484 6.696,17.6036484 5.184,15.4076484 C4.032,17.6396484 2.88,20.0516484 1.836,22.5716484 C1.548,23.2556484 1.08,23.3996484 0.576,22.7516484 C0.252,22.2476484 0,21.6356484 0,20.8076484 C0,20.1956484 0.108,19.4756484 0.324,18.6476484 C1.224,15.6596484 7.344,3.63564836 9.54,0.575648363 C10.08,-0.144351637 10.548,-0.108351637 11.016,0.647648363 C11.232,1.04364836 11.412,1.61964836 11.412,2.23164836 C11.412,3.16764836 11.16,4.46364836 10.26,6.04764836 C8.856,8.56764836 8.568,8.99964836 7.524,10.9076484 C11.7,7.66764836 16.236,4.06764836 19.44,0.287648363 C19.836,-0.180351637 20.34,-0.072351637 20.556,0.575648363 Z M45.864,8.38764836 C46.332,7.70364836 46.872,7.73964836 47.232,8.38764836 C47.556,8.92764836 47.7,9.50364836 47.7,10.0796484 C47.7,10.3316484 47.7,10.5836484 47.664,10.7996484 C49.212,9.35964836 50.94,8.17164836 52.236,8.17164836 C53.28,8.17164836 54.252,9.43164836 54.252,10.7996484 C54.252,11.5916484 53.604,12.7436484 52.452,14.7596484 C51.3,16.5956484 50.076,18.9716484 50.076,20.3036484 C50.076,21.0596484 50.328,21.5276484 50.796,21.5276484 C52.02,21.5276484 53.892,19.1876484 55.188,16.7756484 C55.548,16.0916484 56.052,16.1276484 56.376,16.6316484 C56.664,17.0636484 56.7,18.1796484 56.196,19.1516484 C55.188,21.1316484 52.56,23.0396484 50.4,23.0396484 C47.988,23.0396484 46.944,21.8156484 46.944,19.9436484 C46.944,17.9996484 48.6,14.6876484 50.004,12.4556484 C50.76,11.2676484 51.336,10.3316484 51.084,10.3316484 C50.76,10.3316484 48.996,11.3396484 47.016,13.5716484 C45.036,15.6596484 43.416,19.1876484 41.94,22.4276484 C41.688,23.0036484 41.22,23.2196484 40.644,22.6436484 C40.3788434,22.3784917 40.1734725,22.0834422 40.0383719,21.7375308 C38.963921,22.4946065 37.7179317,22.9316484 36.576,22.9316484 C34.38,22.9316484 33.408,21.6716484 33.408,19.8716484 C33.408,19.1876484 33.552,18.4316484 33.84,17.4956484 C34.74,14.9756484 37.044,10.7996484 38.376,8.92764836 C38.916,8.20764836 39.348,8.13564836 39.816,8.67564836 C40.5,9.39564836 40.788,10.9436484 39.852,12.7436484 C39.168,14.2916484 37.512,16.9916484 36.9,18.4316484 C36.576,19.2596484 36.396,20.0156484 36.396,20.5916484 C36.396,21.1676484 36.54,21.4916484 36.936,21.4916484 C37.9433425,21.4916484 39.1620889,20.3113098 40.1855521,18.7640068 C40.8846176,16.7309031 43.6419153,11.7207754 45.864,8.38764836 Z M16.776,15.3356484 C17.064,15.5156484 17.316,15.5876484 17.568,15.5876484 C18.432,15.5876484 19.584,14.5076484 20.304,13.5356484 C21.348,12.1316484 22.104,10.4396484 21.708,10.1156484 C21.168,9.68364836 18.504,11.8796484 16.776,15.3356484 Z M41.184,4.57164836 C42.192,4.57164836 43.164,5.86764836 43.164,6.91164836 C43.164,7.88364836 42.624,8.71164836 41.724,8.71164836 C40.572,8.71164836 39.6,7.63164836 39.6,6.51564836 C39.6,5.50764836 40.356,4.57164836 41.184,4.57164836 Z" id="形状结合"></path>
            </g>
        </g>
    </g>
</svg>