<?xml version="1.0" encoding="UTF-8"?>
<svg width="121px" height="120px" viewBox="0 0 121 120" version="1.1" xmlns="http://www.w3.org/2000/svg" xmlns:xlink="http://www.w3.org/1999/xlink">
    <title>logosappleappstore</title>
    <g id="页面-1" stroke="none" stroke-width="1" fill="none" fill-rule="evenodd">
        <g id="Apple-TV" transform="translate(-80, -454)">
            <g id="LogosAppleAppStore" transform="translate(80, 454)">
                <path d="M30,21 L29.999,29.5 L40.999,29.5 L41,21 L42,21 L41.999,29.5 L52.999,29.5 L53,21 L54,21 L53.999,29.5 L64.999,29.5 L65,21 L66,21 L65.999,29.5 L76.999,29.5 L77,21 L78,21 L77.999,29.5 L88.999,29.5 L89,21 L90,21 L89.999,29.5 L98.5,29.5 L98.5,30.5 L89.999,30.5 L89.999,41.5 L98.5,41.5 L98.5,42.5 L89.999,42.5 L89.999,53.5 L98.5,53.5 L98.5,54.5 L89.999,54.5 L89.999,65.5 L98.5,65.5 L98.5,66.5 L89.999,66.5 L89.999,77.5 L98.5,77.5 L98.5,78.5 L89.999,78.5 L89.999,89.5 L98.5,89.5 L98.5,90.5 L89.999,90.5 L90,99 L89,99 L88.999,90.5 L77.999,90.5 L78,99 L77,99 L76.999,90.5 L65.999,90.5 L66,99 L65,99 L64.999,90.5 L53.999,90.5 L54,99 L53,99 L52.999,90.5 L41.999,90.5 L42,99 L41,99 L40.999,90.5 L29.999,90.5 L30,99 L29,99 L28.999,90.5 L20.5,90.5 L20.5,89.5 L28.999,89.5 L28.999,78.5 L20.5,78.5 L20.5,77.5 L28.999,77.5 L28.999,66.5 L20.5,66.5 L20.5,65.5 L28.999,65.5 L28.999,54.5 L20.5,54.5 L20.5,53.5 L28.999,53.5 L28.999,42.5 L20.5,42.5 L20.5,41.5 L28.999,41.5 L28.999,30.5 L20.5,30.5 L20.5,29.5 L28.999,29.5 L29,21 L30,21 Z M40.999,78.5 L29.999,78.5 L29.999,89.5 L40.999,89.5 L40.999,78.5 Z M52.999,78.5 L41.999,78.5 L41.999,89.5 L52.999,89.5 L52.999,78.5 Z M64.999,78.5 L53.999,78.5 L53.999,89.5 L64.999,89.5 L64.999,78.5 Z M76.999,78.5 L65.999,78.5 L65.999,89.5 L76.999,89.5 L76.999,78.5 Z M88.999,78.5 L77.999,78.5 L77.999,89.5 L88.999,89.5 L88.999,78.5 Z M40.999,66.5 L29.999,66.5 L29.999,77.5 L40.999,77.5 L40.999,66.5 Z M52.999,66.5 L41.999,66.5 L41.999,77.5 L52.999,77.5 L52.999,66.5 Z M64.999,66.5 L53.999,66.5 L53.999,77.5 L64.999,77.5 L64.999,66.5 Z M76.999,66.5 L65.999,66.5 L65.999,77.5 L76.999,77.5 L76.999,66.5 Z M88.999,66.5 L77.999,66.5 L77.999,77.5 L88.999,77.5 L88.999,66.5 Z M40.999,54.5 L29.999,54.5 L29.999,65.5 L40.999,65.5 L40.999,54.5 Z M52.999,54.5 L41.999,54.5 L41.999,65.5 L52.999,65.5 L52.999,54.5 Z M64.999,54.5 L53.999,54.5 L53.999,65.5 L64.999,65.5 L64.999,54.5 Z M76.999,54.5 L65.999,54.5 L65.999,65.5 L76.999,65.5 L76.999,54.5 Z M88.999,54.5 L77.999,54.5 L77.999,65.5 L88.999,65.5 L88.999,54.5 Z M40.999,42.5 L29.999,42.5 L29.999,53.5 L40.999,53.5 L40.999,42.5 Z M52.999,42.5 L41.999,42.5 L41.999,53.5 L52.999,53.5 L52.999,42.5 Z M64.999,42.5 L53.999,42.5 L53.999,53.5 L64.999,53.5 L64.999,42.5 Z M76.999,42.5 L65.999,42.5 L65.999,53.5 L76.999,53.5 L76.999,42.5 Z M88.999,42.5 L77.999,42.5 L77.999,53.5 L88.999,53.5 L88.999,42.5 Z M40.999,30.5 L29.999,30.5 L29.999,41.5 L40.999,41.5 L40.999,30.5 Z M52.999,30.5 L41.999,30.5 L41.999,41.5 L52.999,41.5 L52.999,30.5 Z M64.999,30.5 L53.999,30.5 L53.999,41.5 L64.999,41.5 L64.999,30.5 Z M76.999,30.5 L65.999,30.5 L65.999,41.5 L76.999,41.5 L76.999,30.5 Z M88.999,30.5 L77.999,30.5 L77.999,41.5 L88.999,41.5 L88.999,30.5 Z" id="形状结合" fill="#40404B"></path>
                <path d="M92,29.3864693 C93.3807119,29.3864693 94.5,30.5057575 94.5,31.8864693 C94.5,33.2671812 93.3807119,34.3864693 92,34.3864693 L29.5961754,34.3864693 C28.2154635,34.3864693 27.0961754,33.2671812 27.0961754,31.8864693 C27.0961754,30.5057575 28.2154635,29.3864693 29.5961754,29.3864693 L92,29.3864693 Z" id="路径-8" fill="#5E45DC" fill-rule="nonzero"></path>
                <circle id="椭圆形" fill="#5E45DC" cx="27" cy="32" r="6"></circle>
                <circle id="椭圆形备份-8" fill="#5E45DC" cx="93" cy="86" r="6"></circle>
                <path d="M92,83.3864693 C93.3807119,83.3864693 94.5,84.5057575 94.5,85.8864693 C94.5,87.2671812 93.3807119,88.3864693 92,88.3864693 L29.5961754,88.3864693 C28.2154635,88.3864693 27.0961754,87.2671812 27.0961754,85.8864693 C27.0961754,84.5057575 28.2154635,83.3864693 29.5961754,83.3864693 L92,83.3864693 Z" id="路径-8备份" fill="#5E45DC" fill-rule="nonzero"></path>
                <path d="M28,25.3864693 C51.8914514,25.3864693 65.5329179,37.3711502 66.4939985,59.7207441 L66.486,59.5644693 L66.5147739,59.9299498 C67.6424902,73.2466048 75.1949436,79.3756655 91.4981852,79.4981262 L92,79.5 C95.5898509,79.5 98.5,82.4101491 98.5,86 C98.5,89.5898509 95.5898509,92.5 92,92.5 C68.7185101,92.5 55.0672952,81.4083879 53.5177436,60.4799494 L53.5060015,60.2792559 C52.8551591,45.1441422 45.1632923,38.3864693 28,38.3864693 C24.4101491,38.3864693 21.5,35.4763202 21.5,31.8864693 C21.5,28.2966185 24.4101491,25.3864693 28,25.3864693 Z" id="路径-7" fill="#45D2DC" fill-rule="nonzero" transform="translate(60, 58.9432) scale(-1, 1) translate(-60, -58.9432)"></path>
            </g>
        </g>
    </g>
</svg>