<?xml version="1.0" encoding="UTF-8"?>
<svg width="120px" height="120px" viewBox="0 0 120 120" version="1.1" xmlns="http://www.w3.org/2000/svg" xmlns:xlink="http://www.w3.org/1999/xlink">
    <title>logosappleappstore</title>
    <defs>
        <linearGradient x1="50%" y1="0%" x2="50%" y2="100%" id="linearGradient-1">
            <stop stop-color="#17C9FB" offset="0%"></stop>
            <stop stop-color="#1A74E8" offset="100%"></stop>
        </linearGradient>
    </defs>
    <g id="页面-1" stroke="none" stroke-width="1" fill="none" fill-rule="evenodd">
        <g id="Apple-TV" transform="translate(-80, -454)" fill-rule="nonzero">
            <g id="LogosAppleAppStore" transform="translate(80, 454)">
                <path d="M38.082,21 L81.918,21 C91.3523438,21 99,28.6476563 99,38.082 L99,81.918 C99,91.3523438 91.3523438,99 81.918,99 L38.082,99 C28.6476563,99 21,91.3523438 21,81.918 L21,38.082 C21,28.6476563 28.6476563,21 38.082,21" id="路径" fill="url(#linearGradient-1)"></path>
                <path d="M45.8142612,77.5854402 L45.8215446,77.5878891 L43.1652127,82.2285248 C42.1956046,83.9225405 40.0482031,84.502926 38.3687629,83.5249029 C36.6893226,82.5468797 36.1139307,80.3808416 37.0835389,78.6868259 L39.0403569,75.2681835 L39.228209,74.940033 C39.5635508,74.4539295 40.3911319,73.6145744 42.0465975,73.7725274 C42.0465975,73.7725274 45.9423284,74.1989394 46.2242583,76.2413089 C46.2242583,76.2413089 46.2624963,76.9132215 45.8142612,77.5854402 M83.4887741,65.7328404 L75.20568,65.7328404 C74.6415167,65.6945766 74.3953971,65.4913192 74.2982845,65.3731606 L74.292215,65.3624467 L65.4255351,49.8714171 L65.414003,49.8790699 L64.8823117,49.1101202 C64.0107265,47.7656828 62.6268726,51.2039163 62.6268726,51.2039163 C60.9744417,55.0351957 62.8614601,59.3908424 63.5190942,60.7074238 L75.8347873,82.2239331 C76.804092,83.9176427 78.9514934,84.4983344 80.6312371,83.5200051 C82.3103739,82.541982 82.8860693,80.3759438 81.9161577,78.6819282 L78.8367792,73.3017294 C78.7769943,73.1713264 78.6732052,72.8174626 79.3047403,72.815932 L83.4887741,72.815932 C85.4279905,72.815932 87,71.2302795 87,69.2742332 C87,67.3181869 85.4279905,65.7325343 83.4887741,65.7325343 M67.4002582,70.5470408 C67.4002582,70.5470408 67.8424238,72.8156259 66.1317255,72.8156259 L35.5112259,72.8156259 C33.5720095,72.8156259 32,71.2299734 32,69.2739271 C32,67.3178808 33.5720095,65.7322282 35.5112259,65.7322282 L43.3834125,65.7322282 C44.6543731,65.6581495 44.955422,64.9179742 44.955422,64.9179742 L44.9627055,64.9216475 L55.2384279,46.9688771 L55.2353931,46.9682648 C55.4226383,46.6214416 55.2666512,46.2935972 55.2396418,46.2418645 L51.8458614,40.3128096 C50.8762532,38.6191001 51.4516451,36.4527558 53.1310854,35.4750388 C54.8105257,34.4973218 56.9579271,35.0770951 57.9275353,36.7711108 L59.5013656,39.5209017 L61.0724647,36.7760086 C62.0420729,35.082299 64.1894743,34.5016073 65.8689146,35.4799366 C67.5483549,36.4582658 68.1237468,38.6236917 67.1541386,40.3177074 L52.8549216,65.2993879 C52.7924054,65.4515249 52.7732863,65.6902911 53.2385162,65.7322282 L61.7856351,65.7322282 L61.7874559,65.8164086 C61.7874559,65.8164086 66.7274503,65.8938546 67.4002582,70.5470408" id="形状" fill="#FFFFFF"></path>
            </g>
        </g>
    </g>
</svg>