<?xml version="1.0" encoding="UTF-8"?>
<svg width="120px" height="120px" viewBox="0 0 120 120" version="1.1" xmlns="http://www.w3.org/2000/svg" xmlns:xlink="http://www.w3.org/1999/xlink">
    <title>logosappleappstore</title>
    <defs>
        <linearGradient x1="50%" y1="0%" x2="50%" y2="100%" id="linearGradient-1">
            <stop stop-color="#FFFFFF" offset="0%"></stop>
            <stop stop-color="#B7BCFF" offset="100%"></stop>
        </linearGradient>
    </defs>
    <g id="页面-1" stroke="none" stroke-width="1" fill="none" fill-rule="evenodd">
        <g id="Apple-TV" transform="translate(-80, -454)">
            <g id="LogosAppleAppStore" transform="translate(80, 454)">
                <path d="M63.9327768,18.2201322 L94.90392,35.7039701 C97.4169384,37.1226199 98.9711432,39.7847544 98.9711432,42.6705522 L98.9711432,77.3294478 C98.9711432,80.2152456 97.4169384,82.8773801 94.90392,84.2960299 L63.9327768,101.779868 C61.4919601,103.157758 58.5080399,103.157758 56.0672232,101.779868 L25.09608,84.2960299 C22.5830616,82.8773801 21.0288568,80.2152456 21.0288568,77.3294478 L21.0288568,42.6705522 C21.0288568,39.7847544 22.5830616,37.1226199 25.09608,35.7039701 L56.0672232,18.2201322 C58.5080399,16.8422417 61.4919601,16.8422417 63.9327768,18.2201322 Z" id="多边形" fill="#5F6AFA"></path>
                <path d="M43.6641248,71 C42.6973722,71 41.8690101,70.3085005 41.6962995,69.3573004 L39.1262211,55.2026418 C38.8302238,53.5724419 39.9118086,52.0109506 41.5420085,51.7149532 C42.2200793,51.5918351 42.9198645,51.7059255 43.5237153,52.0380434 L50.9319313,56.1124985 L57.4275212,45.2874646 C57.6446778,44.9255371 57.9353361,44.6141972 58.2798555,44.3730856 L58.4565127,44.2584731 C59.8772535,43.4060286 61.7200343,43.8667238 62.5724788,45.2874646 L69.0699313,56.1154985 L76.4733823,52.041756 C77.0104792,51.7461471 77.6235352,51.6230652 78.2297285,51.6860158 L78.4565675,51.7183689 C80.0866965,52.014756 81.167908,53.5765059 80.8715209,55.206635 L78.2985871,69.3577709 C78.1256814,70.3087523 77.2974196,71 76.3308473,71 L43.6641248,71 Z" id="形状结合" fill="url(#linearGradient-1)"></path>
                <circle id="椭圆形" fill="#FFFFFF" cx="38" cy="48" r="3"></circle>
                <rect id="矩形" fill="#D2D5FF" x="41" y="76" width="38" height="4" rx="2"></rect>
                <circle id="椭圆形备份-2" fill="#FFFFFF" cx="81" cy="48" r="3"></circle>
                <circle id="椭圆形备份" fill="#FFFFFF" cx="60" cy="39" r="3"></circle>
            </g>
        </g>
    </g>
</svg>