<?xml version="1.0" encoding="UTF-8"?>
<svg width="120px" height="120px" viewBox="0 0 120 120" version="1.1" xmlns="http://www.w3.org/2000/svg" xmlns:xlink="http://www.w3.org/1999/xlink">
    <title>logosappleappstore</title>
    <defs>
        <linearGradient x1="18.7512802%" y1="11.6596167%" x2="79.1537524%" y2="88.7806488%" id="linearGradient-1">
            <stop stop-color="#FF7B7A" offset="0%"></stop>
            <stop stop-color="#9D0600" offset="100%"></stop>
        </linearGradient>
    </defs>
    <g id="页面-1" stroke="none" stroke-width="1" fill="none" fill-rule="evenodd">
        <g id="Apple-TV" transform="translate(-80, -454)">
            <g id="LogosAppleAppStore" transform="translate(80, 454)">
                <g id="编组-3" transform="translate(17.4437, 27)">
                    <circle id="椭圆形" fill="url(#linearGradient-1)" cx="43.3975808" cy="32.6253756" r="32.6253756"></circle>
                    <polygon id="星形" fill="#FFA8A8" points="34.5421217 28.6637229 27.693295 32.2643641 29.0013045 24.6380836 23.4604874 19.2371217 31.1177084 18.1244624 34.5421217 11.1858431 37.966535 18.1244624 45.623756 19.2371217 40.0829389 24.6380836 41.3909484 32.2643641"></polygon>
                    <path d="M85.2811142,15.5150225 C89.2198515,25.2637396 76.752437,40.2644601 53.3102244,49.7357288 C29.8680119,59.2069975 4.52063121,59.4844459 0.581893849,49.7357288 C-1.62208658,44.2806858 2.5743551,37.6224438 10.8056533,31.1561503 C10.7831132,31.6431367 10.7722052,32.1329823 10.7722052,32.6253756 C10.7722052,33.3787094 10.7977378,34.1260797 10.8479848,34.8666684 C8.4759319,37.3303027 6.36548086,40.9571085 8.03187528,43.5506958 C10.0221288,46.6483395 14.8746525,46.6483395 18.4880319,46.3623596 C26.2496882,45.7480655 37.0343788,43.8189535 47.1575363,39.7289323 C57.2806939,35.6389112 64.489634,31.1816645 70.4996269,26.2318512 C73.2975328,23.9275036 76.3591699,19.5803924 75.3685193,16.9243297 C74.6089917,14.8879376 71.7375272,12.8676584 68.810538,12.1647075 C67.956838,11.1049035 67.037372,10.0994412 66.0589903,9.15459168 C75.9398634,8.31529185 83.1510507,10.2429304 85.2811142,15.5150225 Z" id="形状结合" fill="#FFFFFF" fill-rule="nonzero"></path>
                    <path d="M85.2811142,15.5150225 C88.5353355,23.5695028 80.5903607,35.209115 64.5094105,44.353243 L31.9181539,44.3531798 C36.8555219,43.2826041 42.089434,41.7765786 47.1575363,39.7289323 C57.2806939,35.6389112 64.489634,31.1816645 70.4996269,26.2318512 C73.2975328,23.9275036 76.3591699,19.5803924 75.3685193,16.9243297 C74.6089917,14.8879376 71.7375272,12.8676584 68.810538,12.1647075 C67.956838,11.1049035 67.037372,10.0994412 66.0589903,9.15459168 C75.9398634,8.31529185 83.1510507,10.2429304 85.2811142,15.5150225 Z" id="形状结合" fill="#ECADAD" fill-rule="nonzero"></path>
                </g>
            </g>
        </g>
    </g>
</svg>