<?xml version="1.0" encoding="UTF-8"?>
<svg width="120px" height="120px" viewBox="0 0 120 120" version="1.1" xmlns="http://www.w3.org/2000/svg" xmlns:xlink="http://www.w3.org/1999/xlink">
    <title>logosappleappstore</title>
    <defs>
        <linearGradient x1="15.0645886%" y1="7.20198416%" x2="60.2184341%" y2="86.2504475%" id="linearGradient-1">
            <stop stop-color="#34BF85" offset="0%"></stop>
            <stop stop-color="#159350" offset="100%"></stop>
        </linearGradient>
    </defs>
    <g id="页面-1" stroke="none" stroke-width="1" fill="none" fill-rule="evenodd">
        <g id="Apple-TV" transform="translate(-80, -454)">
            <g id="LogosAppleAppStore" transform="translate(80, 454)">
                <path d="M49,24 L71,24 C74.3137085,24 77,26.6862915 77,30 L77,38 L77,38 L43,38 L43,30 C43,26.6862915 45.6862915,24 49,24 Z" id="矩形" fill="#95BFA8"></path>
                <path d="M77.0003547,38 L83.072819,48.6268125 C84.2456434,50.6792552 84.1040399,53.2290549 82.7111632,55.139011 L63.3083219,81.7447947 C63.1200777,82.0029209 62.8198309,82.1555672 62.5003547,82.1555672 C61.9480699,82.1555672 61.5003547,81.7078519 61.5003547,81.1555672 L61.5008652,58.8387213 C64.6456138,58.1517263 67,55.3508113 67,52 C67,48.1340068 63.8659932,45 60,45 C56.1340068,45 53,48.1340068 53,52 C53,55.3511661 55.3548848,58.1523195 58.5001338,58.8389394 L58.5,81.1555672 C58.5,81.7078519 58.0522847,82.1555672 57.5,82.1555672 C57.1805238,82.1555672 56.880277,82.0029209 56.6920328,81.7447947 L37.2891915,55.139011 C35.8963148,53.2290549 35.7547113,50.6792552 36.9275357,48.6268125 L43,38 L77.0003547,38 Z" id="形状结合" fill="url(#linearGradient-1)"></path>
                <path d="M29.4511262,57.9018821 L29.4511262,58.8190134 C29.4511262,75.6906905 43.1283229,89.3678872 60,89.3678872 C77.0190975,89.3678872 90.815802,75.5711827 90.815802,58.5520852 L90.815802,57.9018821 L94.815802,57.9018821 L94.815802,58.5520852 C94.815802,77.7803217 79.2282365,93.3678872 60,93.3678872 C40.9191839,93.3678872 25.4511262,77.8998295 25.4511262,58.8190134 L25.4511262,57.9018821 L29.4511262,57.9018821 Z" id="路径-5" fill="#FFFFFF" fill-rule="nonzero"></path>
                <path d="M27.5,48 C31.0898509,48 34,50.9101491 34,54.5 C34,58.0898509 31.0898509,61 27.5,61 C23.9101491,61 21,58.0898509 21,54.5 C21,50.9101491 23.9101491,48 27.5,48 Z M27.5,52 C26.1192881,52 25,53.1192881 25,54.5 C25,55.8807119 26.1192881,57 27.5,57 C28.8807119,57 30,55.8807119 30,54.5 C30,53.1192881 28.8807119,52 27.5,52 Z" id="椭圆形" fill="#95BFA8" fill-rule="nonzero"></path>
                <path d="M92.5,48 C96.0898509,48 99,50.9101491 99,54.5 C99,58.0898509 96.0898509,61 92.5,61 C88.9101491,61 86,58.0898509 86,54.5 C86,50.9101491 88.9101491,48 92.5,48 Z M92.5,52 C91.1192881,52 90,53.1192881 90,54.5 C90,55.8807119 91.1192881,57 92.5,57 C93.8807119,57 95,55.8807119 95,54.5 C95,53.1192881 93.8807119,52 92.5,52 Z" id="椭圆形备份-7" fill="#95BFA8" fill-rule="nonzero"></path>
                <circle id="椭圆形备份-6" fill="#1C9D5C" cx="60" cy="91" r="6"></circle>
            </g>
        </g>
    </g>
</svg>