<?xml version="1.0" encoding="UTF-8"?>
<svg width="120px" height="120px" viewBox="0 0 120 120" version="1.1" xmlns="http://www.w3.org/2000/svg" xmlns:xlink="http://www.w3.org/1999/xlink">
    <title>logosappleappstore</title>
    <g id="页面-1" stroke="none" stroke-width="1" fill="none" fill-rule="evenodd">
        <g id="Apple-TV" transform="translate(-80, -454)">
            <g id="LogosAppleAppStore" transform="translate(80, 454)">
                <path d="M91.4788521,40.0495687 L98.5571914,36.1886564 C99.0420398,35.9241937 99.2206976,35.316757 98.9562349,34.8319087 C98.7810017,34.5106479 98.4442835,34.3107608 98.0783393,34.3107608 L83.9216607,34.3107608 C83.3693759,34.3107608 82.9216607,34.7584761 82.9216607,35.3107608 C82.9216607,35.676705 83.1215477,36.0134232 83.4428086,36.1886564 L90.5211479,40.0495687 C90.8196254,40.2123746 91.1803746,40.2123746 91.4788521,40.0495687 Z M79.7860763,21.0010279 C89.2577596,21.4222759 93.9936012,25.85156 93.9936012,34.28888 C93.9936012,34.28888 88.0121468,34.2902255 87.956773,34.28888 C88.7493557,29.0206808 85.9006033,25.2383279 79.4105156,22.9418215 L79.4101291,22.9429157 C78.8893752,22.7589759 78.6163334,22.1877089 78.8002731,21.666955 C78.9467152,21.2523613 79.3467887,20.9820653 79.7860806,21.0009279 Z" id="形状结合" fill="#A681FF"></path>
                <path d="M33.7359432,98.7388079 L40.8142825,94.8778956 C41.2991308,94.6134328 41.4777887,94.0059962 41.2133259,93.5211479 C41.0380928,93.1998871 40.7013746,93 40.3354304,93 L26.1787517,93 C25.626467,93 25.1787517,93.4477153 25.1787517,94 C25.1787517,94.3659442 25.3786388,94.7026624 25.6998996,94.8778956 L32.7782389,98.7388079 C33.0767164,98.9016138 33.4374657,98.9016138 33.7359432,98.7388079 Z M22.0431674,79.6902671 C31.5148506,80.1115151 36.2506923,84.5407991 36.2506923,92.9781192 C36.2506923,92.9781192 30.2692379,92.9794647 30.2138641,92.9781192 C31.0064468,87.70992 28.1576943,83.9275671 21.6676067,81.6310606 L21.6672202,81.6321549 C21.1464663,81.4482151 20.8734245,80.876948 21.0573642,80.3561942 C21.2038062,79.9416005 21.6038797,79.6713045 22.0431717,79.6901671 Z" id="形状结合备份-2" fill="#A681FF" transform="translate(31.1678, 89.2751) scale(-1, -1) translate(-31.1678, -89.2751)"></path>
                <polygon id="矩形" fill="#FC8533" points="49.2426707 21.373488 76.9734089 62.373488 21.5119324 62.373488"></polygon>
                <rect id="矩形备份-6" fill="#FFD381" x="49" y="50" width="48" height="48" rx="23.5"></rect>
            </g>
        </g>
    </g>
</svg>