<?xml version="1.0" encoding="UTF-8"?>
<svg width="120px" height="120px" viewBox="0 0 120 120" version="1.1" xmlns="http://www.w3.org/2000/svg" xmlns:xlink="http://www.w3.org/1999/xlink">
    <title>logosappleappstore</title>
    <defs>
        <linearGradient x1="25.9330834%" y1="5.81283049%" x2="79.7981853%" y2="89.0067177%" id="linearGradient-1">
            <stop stop-color="#D64BEA" offset="0%"></stop>
            <stop stop-color="#7864EC" offset="100%"></stop>
            <stop stop-color="#7764EC" offset="100%"></stop>
        </linearGradient>
    </defs>
    <g id="页面-1" stroke="none" stroke-width="1" fill="none" fill-rule="evenodd">
        <g id="Apple-TV" transform="translate(-80, -454)">
            <g id="LogosAppleAppStore" transform="translate(80, 454)">
                <path d="M60,21 C81.5391052,21 99,38.4608948 99,60 C99,81.5391052 81.5391052,99 60,99 C52.8136581,99 46.0812892,97.0563103 40.2999248,93.6659624 L22.0492497,99 L27.2538975,81.1908791 C23.2975547,75.0897199 21,67.8131713 21,60 C21,38.4608948 38.4608948,21 60,21 Z" id="形状结合" fill="url(#linearGradient-1)"></path>
                <g id="编组" transform="translate(47.2763, 38.4939)" fill="#EAC9FF">
                    <path d="M0.582371196,12.6306137 C0.08058405,13.1318506 -0.115746439,13.8627798 0.0673355242,14.5480673 C0.250417487,15.2333547 0.785097397,15.7688889 1.46996651,15.9529394 C2.15483562,16.1369899 2.88584601,15.941595 3.38763316,15.440358 L11.0850906,7.74097789 L11.0850906,28.0104657 C11.0849472,28.719859 11.463227,29.3754267 12.0774023,29.7301648 C12.6915775,30.0849028 13.4483141,30.0849028 14.0624893,29.7301648 C14.6766646,29.3754267 15.0549444,28.719859 15.054801,28.0104657 L15.054801,7.45735633 L23.0358092,15.4441396 C23.8115049,16.2200291 25.0691561,16.220029 25.8448518,15.4441396 C26.6205475,14.6682501 26.6205475,13.4102847 25.8448518,12.6343953 L16.0188735,2.80974425 C14.4707679,1.25916513 11.9587877,1.25715989 10.4082086,2.80526543 C10.4074847,2.80598813 10.4067612,2.8067111 10.4060379,2.80743436 L0.582371196,12.6306137 L0.582371196,12.6306137 Z" id="路径" fill-rule="nonzero"></path>
                    <rect id="矩形" x="3" y="34" width="21" height="4" rx="2"></rect>
                </g>
            </g>
        </g>
    </g>
</svg>